<?xml version="1.0" encoding="UTF-8" standalone="no"?>
<svg
   width="200"
   height="56"
   viewBox="0 0 200 56"
   fill="none"
   version="1.1"
   id="svg8"
   xmlns="http://www.w3.org/2000/svg"
   xmlns:svg="http://www.w3.org/2000/svg">
  <defs
     id="defs12" />
  <!-- Feedboard Logo - Primary with Underline -->
  <g
     aria-label="Feed"
     id="text2"
     style="font-weight:600;font-size:26px;font-family:'Inter SemiBold', Inter;fill:#1e293b">
    <path
       d="m 9.9042969,36 h 3.3896481 v -7.566406 h 7.871094 v -2.81836 H 13.293945 V 19.94043 h 8.72168 V 17.083984 H 9.9042969 Z"
       id="path14" />
    <path
       d="m 30.470703,36.291992 c 3.161133,0 5.370117,-1.510742 6.055664,-3.808594 l -3.03418,-0.62207 c -0.444335,1.206055 -1.536132,1.84082 -2.983398,1.84082 -2.120117,0 -3.554687,-1.345703 -3.643555,-3.87207 h 9.876953 v -1.041016 c 0,-4.976562 -3.021484,-7.160156 -6.487304,-7.160156 -4.0625,0 -6.677735,2.996094 -6.677735,7.363281 0,4.44336 2.615235,7.299805 6.893555,7.299805 z M 26.87793,27.583008 c 0.152343,-1.891602 1.371093,-3.364258 3.389648,-3.364258 1.967774,0 3.072266,1.333008 3.262695,3.364258 z"
       id="path16" />
    <path
       d="m 45.844727,36.291992 c 3.161132,0 5.370117,-1.510742 6.055664,-3.808594 l -3.03418,-0.62207 c -0.444336,1.206055 -1.536133,1.84082 -2.983399,1.84082 -2.120117,0 -3.554687,-1.345703 -3.643554,-3.87207 h 9.876953 v -1.041016 c 0,-4.976562 -3.021484,-7.160156 -6.487305,-7.160156 -4.0625,0 -6.677734,2.996094 -6.677734,7.363281 0,4.44336 2.615234,7.299805 6.893555,7.299805 z m -3.592774,-8.708984 c 0.152344,-1.891602 1.371094,-3.364258 3.389649,-3.364258 1.967773,0 3.072265,1.333008 3.262695,3.364258 z"
       id="path18" />
    <path
       d="m 60.177734,36.253906 c 2.450196,0 3.541993,-1.472656 4.0625,-2.500976 h 0.203125 V 36 h 3.237305 V 17.083984 h -3.300781 v 7.071289 h -0.139649 c -0.507812,-1.002929 -1.548828,-2.526367 -4.075195,-2.526367 -3.275391,0 -5.839844,2.577149 -5.839844,7.299805 0,4.65918 2.488282,7.325195 5.852539,7.325195 z m 0.901368,-2.716797 c -2.208985,0 -3.376954,-1.955078 -3.376954,-4.621093 0,-2.640625 1.142579,-4.570313 3.376954,-4.570313 2.170898,0 3.364257,1.802734 3.364257,4.570313 0,2.767578 -1.21875,4.621093 -3.364257,4.621093 z"
       id="path20" />
  </g>
  <g
     aria-label="board"
     id="text4"
     style="font-weight:600;font-size:26px;font-family:'Inter SemiBold', Inter;fill:#0891b2">
    <path
       d="m 81.242187,36.253906 c 3.364258,0 5.865235,-2.666015 5.865235,-7.325195 0,-4.722656 -2.577149,-7.299805 -5.852539,-7.299805 -2.526367,0 -3.567383,1.523438 -4.0625,2.526367 H 77.052734 V 17.083984 H 73.751953 V 36 h 3.224609 v -2.24707 h 0.215821 c 0.507812,1.02832 1.612304,2.500976 4.049804,2.500976 z m -0.888671,-2.716797 c -2.158204,0 -3.364258,-1.853515 -3.364258,-4.621093 0,-2.767579 1.180664,-4.570313 3.364258,-4.570313 2.234375,0 3.364257,1.929688 3.364257,4.570313 0,2.666015 -1.155273,4.621093 -3.364257,4.621093 z"
       id="path23" />
    <path
       d="m 96.133789,36.291992 c 4.138671,0 6.791991,-2.945312 6.791991,-7.3125 0,-4.417969 -2.65332,-7.350586 -6.791991,-7.350586 -4.138672,0 -6.779297,2.932617 -6.779297,7.350586 0,4.367188 2.640625,7.3125 6.779297,7.3125 z m 0,-2.678711 c -2.297852,0 -3.415039,-2.05664 -3.415039,-4.646484 0,-2.615235 1.117187,-4.65918 3.415039,-4.65918 2.310547,0 3.44043,2.043945 3.44043,4.65918 0,2.589844 -1.129883,4.646484 -3.44043,4.646484 z"
       id="path25" />
    <path
       d="m 110.02246,36.291992 c 2.20899,0 3.55469,-1.02832 4.17676,-2.24707 h 0.12695 V 36 h 3.16113 v -9.483398 c 0,-3.783204 -3.12304,-4.887696 -5.78906,-4.887696 -2.84375,0 -5.17969,1.206055 -6.01758,3.707031 l 3.05957,0.622071 c 0.34278,-0.939453 1.32032,-1.790039 2.97071,-1.790039 1.6123,0 2.47558,0.8125 2.47558,2.196289 v 0.06348 c 0,0.977539 -1.04101,1.015625 -3.5039,1.282227 -2.74219,0.291992 -5.40821,1.104492 -5.40821,4.303711 0,2.792969 2.04395,4.27832 4.74805,4.27832 z m 0.85059,-2.450195 c -1.39649,0 -2.39942,-0.634766 -2.39942,-1.866211 0,-1.294922 1.11719,-1.84082 2.60254,-2.043945 0.85059,-0.114258 2.69141,-0.342774 3.13574,-0.698243 v 1.675782 c 0,1.574218 -1.30761,2.932617 -3.33886,2.932617 z"
       id="path27" />
    <path
       d="m 120.99121,36 h 3.30078 v -8.353516 c 0,-1.802734 1.3584,-3.072265 3.19922,-3.072265 0.58399,0 1.28223,0.08887 1.56152,0.165039 v -3.03418 c -0.31738,-0.05078 -0.83789,-0.08887 -1.20605,-0.08887 -1.625,0 -2.99609,0.926758 -3.50391,2.564453 h -0.15234 v -2.374023 h -3.19922 z"
       id="path29" />
    <path
       d="m 135.97168,36.253906 c 2.45019,0 3.54199,-1.472656 4.0625,-2.500976 h 0.20312 V 36 h 3.23731 V 17.083984 h -3.30078 v 7.071289 h -0.13965 c -0.50781,-1.002929 -1.54883,-2.526367 -4.0752,-2.526367 -3.27539,0 -5.83984,2.577149 -5.83984,7.299805 0,4.65918 2.48828,7.325195 5.85254,7.325195 z m 0.90137,-2.716797 c -2.20899,0 -3.37696,-1.955078 -3.37696,-4.621093 0,-2.640625 1.14258,-4.570313 3.37696,-4.570313 2.1709,0 3.36425,1.802734 3.36425,4.570313 0,2.767578 -1.21875,4.621093 -3.36425,4.621093 z"
       id="path31" />
  </g>
  <rect
     x="8"
     y="44"
     width="145"
     height="4"
     rx="2"
     fill="#0891B2"
     id="rect6" />
</svg>
