<?xml version="1.0" encoding="UTF-8" standalone="no"?>
<svg
   width="180"
   height="40"
   viewBox="0 0 180 40"
   fill="none"
   version="1.1"
   id="svg6"
   xmlns="http://www.w3.org/2000/svg"
   xmlns:svg="http://www.w3.org/2000/svg">
  <defs
     id="defs10" />
  <!-- Feedboard Logo - Compact (no underline) -->
  <g
     aria-label="Feed"
     id="text2"
     style="font-weight:600;font-size:24px;font-family:'Inter SemiBold', Inter;fill:#1e293b">
    <path
       d="M 5.7578125,30 H 8.8867188 V 23.015625 H 16.152344 V 20.414062 H 8.8867188 V 15.175781 H 16.9375 V 12.539063 H 5.7578125 Z"
       id="path12" />
    <path
       d="m 24.742187,30.269531 c 2.917969,0 4.957032,-1.394531 5.589844,-3.515625 L 27.53125,26.179687 c -0.410156,1.113282 -1.417969,1.699219 -2.753906,1.699219 -1.957032,0 -3.28125,-1.242187 -3.363282,-3.574219 H 30.53125 V 23.34375 c 0,-4.59375 -2.789063,-6.609375 -5.988281,-6.609375 -3.75,0 -6.164063,2.765625 -6.164063,6.796875 0,4.101562 2.414063,6.738281 6.363281,6.738281 z M 21.425781,22.230469 C 21.566406,20.484375 22.691406,19.125 24.554687,19.125 c 1.816407,0 2.835938,1.230469 3.011719,3.105469 z"
       id="path14" />
    <path
       d="m 38.933594,30.269531 c 2.917968,0 4.957031,-1.394531 5.589843,-3.515625 l -2.800781,-0.574219 c -0.410156,1.113282 -1.417969,1.699219 -2.753906,1.699219 -1.957031,0 -3.28125,-1.242187 -3.363281,-3.574219 h 9.117187 V 23.34375 c 0,-4.59375 -2.789062,-6.609375 -5.988281,-6.609375 -3.75,0 -6.164063,2.765625 -6.164063,6.796875 0,4.101562 2.414063,6.738281 6.363282,6.738281 z M 35.617187,22.230469 C 35.757812,20.484375 36.882812,19.125 38.746094,19.125 c 1.816406,0 2.835937,1.230469 3.011718,3.105469 z"
       id="path16" />
    <path
       d="m 52.164062,30.234375 c 2.261719,0 3.269532,-1.359375 3.75,-2.308594 h 0.1875 V 30 h 2.988282 V 12.539063 h -3.046875 v 6.527343 h -0.128907 c -0.46875,-0.925781 -1.429687,-2.332031 -3.761718,-2.332031 -3.023438,0 -5.390625,2.378906 -5.390625,6.738281 0,4.300781 2.296875,6.761719 5.402343,6.761719 z m 0.832032,-2.507813 c -2.039063,0 -3.117188,-1.804687 -3.117188,-4.265625 0,-2.4375 1.054688,-4.21875 3.117188,-4.21875 2.003906,0 3.105468,1.664063 3.105468,4.21875 0,2.554688 -1.125,4.265625 -3.105468,4.265625 z"
       id="path18" />
  </g>
  <g
     aria-label="board"
     id="text4"
     style="font-weight:600;font-size:24px;font-family:'Inter SemiBold', Inter;fill:#0891b2">
    <path
       d="m 70.53125,30.234375 c 3.105469,0 5.414062,-2.460938 5.414062,-6.761719 0,-4.359375 -2.378906,-6.738281 -5.402343,-6.738281 -2.332032,0 -3.292969,1.40625 -3.75,2.332031 H 66.664062 V 12.539063 H 63.617187 V 30 h 2.976563 v -2.074219 h 0.199219 c 0.46875,0.949219 1.488281,2.308594 3.738281,2.308594 z m -0.820313,-2.507813 c -1.992187,0 -3.105468,-1.710937 -3.105468,-4.265625 0,-2.554687 1.089843,-4.21875 3.105468,-4.21875 2.0625,0 3.105469,1.78125 3.105469,4.21875 0,2.460938 -1.066406,4.265625 -3.105469,4.265625 z"
       id="path21" />
    <path
       d="m 84.277344,30.269531 c 3.820312,0 6.269531,-2.71875 6.269531,-6.75 0,-4.078125 -2.449219,-6.785156 -6.269531,-6.785156 -3.820313,0 -6.257813,2.707031 -6.257813,6.785156 0,4.03125 2.4375,6.75 6.257813,6.75 z m 0,-2.472656 c -2.121094,0 -3.152344,-1.898438 -3.152344,-4.289063 0,-2.414062 1.03125,-4.300781 3.152344,-4.300781 2.132812,0 3.175781,1.886719 3.175781,4.300781 0,2.390625 -1.042969,4.289063 -3.175781,4.289063 z"
       id="path23" />
    <path
       d="m 97.097656,30.269531 c 2.039063,0 3.281254,-0.949219 3.855474,-2.074219 h 0.11718 V 30 h 2.91797 v -8.753906 c 0,-3.492188 -2.88281,-4.511719 -5.343749,-4.511719 -2.625,0 -4.78125,1.113281 -5.554687,3.421875 l 2.824218,0.574219 c 0.316407,-0.867188 1.21875,-1.652344 2.742188,-1.652344 1.48828,0 2.28516,0.75 2.28516,2.027344 v 0.05859 c 0,0.902344 -0.960941,0.9375 -3.234379,1.183594 -2.53125,0.269531 -4.992187,1.019531 -4.992187,3.972656 0,2.578125 1.886718,3.949219 4.382812,3.949219 z m 0.785156,-2.261719 c -1.289062,0 -2.214843,-0.585937 -2.214843,-1.722656 0,-1.195312 1.03125,-1.699219 2.402343,-1.886719 0.785157,-0.105468 2.484378,-0.316406 2.894528,-0.644531 v 1.546875 c 0,1.453125 -1.207028,2.707031 -3.082028,2.707031 z"
       id="path25" />
    <path
       d="m 107.22266,30 h 3.04687 v -7.710938 c 0,-1.664062 1.25391,-2.835937 2.95313,-2.835937 0.53906,0 1.18359,0.08203 1.4414,0.152344 v -2.800782 c -0.29297,-0.04687 -0.77343,-0.08203 -1.11328,-0.08203 -1.5,0 -2.76562,0.855469 -3.23437,2.367188 h -0.14063 v -2.191407 h -2.95312 z"
       id="path27" />
    <path
       d="m 121.05078,30.234375 c 2.26172,0 3.26953,-1.359375 3.75,-2.308594 h 0.1875 V 30 h 2.98828 V 12.539063 h -3.04687 v 6.527343 h -0.12891 c -0.46875,-0.925781 -1.42969,-2.332031 -3.76172,-2.332031 -3.02343,0 -5.39062,2.378906 -5.39062,6.738281 0,4.300781 2.29687,6.761719 5.40234,6.761719 z m 0.83203,-2.507813 c -2.03906,0 -3.11718,-1.804687 -3.11718,-4.265625 0,-2.4375 1.05468,-4.21875 3.11718,-4.21875 2.00391,0 3.10547,1.664063 3.10547,4.21875 0,2.554688 -1.125,4.265625 -3.10547,4.265625 z"
       id="path29" />
  </g>
</svg>
